#!OML:ASF H:\Not Pregnant\Project 1\Capture day 1\Session 1\non-pregnant.ASF
:FULLY-SPECIFIED
:DEGREES
546
root 16.4759 14.9431 34.2162 362.795 -147.516 -347.569
lowerback 0.494457 -3.70282 13.5353
upperback -3.87487 -4.82729 4.07052
thorax -5.13666 -2.99261 -2.93689
lowerneck -7.51822 2.24933 -25.7722
upperneck 14.8304 0.500425 33.1632
head 5.10261 0.361563 16.951
rclavicle -8.28684e-014 1.66979e-014
rhumerus -75.4016 13.147 -88.1939
rradius 133.533
rwrist -19.0811
rhand -14.6144 -13.3951
rfingers 7.12502
rthumb 11.5366 -43.0576
lclavicle -8.28684e-014 1.66979e-014
lhumerus -40.8493 -23.6355 103.658
lradius 68.0417
lwrist 43.9619
lhand -17.8015 -26.2119
lfingers 7.12502
lthumb 8.4619 3.59859
rfemur -19.4896 0.288636 23.8072
rtibia 37.8814
rfoot -34.6229 24.1858
rtoes -13.1818
lfemur -34.2746 14.2994 9.78927
ltibia 46.7878
lfoot -1.71511 12.7965
ltoes -30.5089
547
root 16.4081 14.9297 34.2338 362.85 -147.596 -347.381
lowerback 0.414857 -3.72148 13.6843
upperback -3.88077 -4.86873 4.11908
thorax -5.11365 -3.02021 -2.96729
lowerneck -7.48928 2.25481 -25.7951
upperneck 14.7312 0.532415 33.1574
head 5.05791 0.376252 16.9427
rclavicle 6.22196e-014 -5.60573e-014
rhumerus -75.5887 12.8257 -88.2877
rradius 133.727
rwrist -18.9739
rhand -14.811 -13.3409
rfingers 7.12502
rthumb 11.347 -43.0139
lclavicle 6.22196e-014 -5.60573e-014
lhumerus -40.8269 -23.5595 103.674
lradius 68.4361
lwrist 43.9954
lhand -17.7184 -26.2219
lfingers 7.12502
lthumb 8.54206 3.58531
rfemur -19.5149 0.0351004 23.7083
rtibia 37.7879
rfoot -34.8975 24.3588
rtoes -13.3891
lfemur -34.5122 14.6547 9.65963
ltibia 47.2281
lfoot -2.41265 12.4264
ltoes -30.9298
548
root 16.338 14.9158 34.2514 362.898 -147.646 -347.178
lowerback 0.322932 -3.7353 13.8523
upperback -3.89764 -4.9055 4.16478
thorax -5.09696 -3.04737 -3.01134
lowerneck -7.41852 2.2657 -25.8198
upperneck 14.6178 0.563335 33.1606
head 5.00093 0.387161 16.9365
rclavicle 7.01337e-014 2.62396e-014
rhumerus -75.787 12.5083 -88.397
rradius 133.908
rwrist -18.8631
rhand -15.0165 -13.2483
rfingers 7.12502
rthumb 11.1488 -42.9321
lclavicle 7.01337e-014 2.62396e-014
lhumerus -40.8341 -23.4745 103.698
lradius 68.8397
lwrist 44.0423
lhand -17.6564 -26.217
lfingers 7.12502
lthumb 8.60194 3.58774
rfemur -19.5274 -0.212581 23.6137
rtibia 37.6826
rfoot -35.1651 24.4928
rtoes -13.6304
lfemur -34.7821 14.9977 9.5205
ltibia 47.6826
lfoot -3.12221 12.087
ltoes -31.3654
549
root 16.2656 14.9012 34.2691 362.939 -147.667 -346.963
lowerback 0.227435 -3.74737 14.0315
upperback -3.91915 -4.9409 4.21406
thorax -5.08392 -3.07489 -3.05754
lowerneck -7.33458 2.27602 -25.8497
upperneck 14.4939 0.59455 33.1625
head 4.93835 0.397383 16.9295
rclavicle 8.40238e-014 9.54166e-015
rhumerus -75.9667 12.2029 -88.4883
rradius 134.076
rwrist -18.7355
rhand -15.1524 -13.1453
rfingers 7.12502
rthumb 11.0178 -42.8362
lclavicle 8.40238e-014 9.54166e-015
lhumerus -40.852 -23.3752 103.728
lradius 69.2528
lwrist 44.0972
lhand -17.6204 -26.212
lfingers 7.12502
lthumb 8.63665 3.59129
rfemur -19.5283 -0.440594 23.5207
rtibia 37.5691
rfoot -35.4193 24.5823
rtoes -13.9026
lfemur -35.0825 15.335 9.36615
ltibia 48.1521
lfoot -3.84457 11.8175
ltoes -31.7946
550
root 16.1909 14.8859 34.2868 362.975 -147.659 -346.746
lowerback 0.123321 -3.76126 14.2065
upperback -3.93667 -4.98128 4.26742
thorax -5.06179 -3.10405 -3.09772
lowerneck -7.29571 2.26331 -25.9009
upperneck 14.3966 0.59832 33.1711
head 4.90191 0.396025 16.936
rclavicle 2.56432e-014 -7.4743e-014
rhumerus -76.1084 11.9229 -88.5661
rradius 134.225
rwrist -18.6046
rhand -15.2516 -13.0228
rfingers 7.12502
rthumb 10.9221 -42.7187
lclavicle 2.56432e-014 -7.4743e-014
lhumerus -40.8597 -23.2572 103.755
lradius 69.6698
lwrist 44.1542
lhand -17.6124 -26.1972
lfingers 7.12502
lthumb 8.64444 3.60577
rfemur -19.5151 -0.643148 23.42
rtibia 37.4501
rfoot -35.6659 24.6122
rtoes -14.2453
lfemur -35.4116 15.6746 9.18056
ltibia 48.639
lfoot -4.57973 11.6468
ltoes -32.1716
551
root 16.1142 14.8699 34.3044 363.004 -147.627 -346.527
lowerback 0.0123366 -3.76991 14.3811
upperback -3.95566 -5.01627 4.31801
thorax -5.0368 -3.13048 -3.14154
lowerneck -7.24149 2.24746 -25.9476
upperneck 14.2921 0.593905 33.1806
head 4.86335 0.389604 16.941
rclavicle -8.56389e-014 3.69739e-014
rhumerus -76.2258 11.6464 -88.6349
rradius 134.358
rwrist -18.4799
rhand -15.3054 -12.9085
rfingers 7.12502
rthumb 10.8702 -42.6071
lclavicle -8.56389e-014 3.69739e-014
lhumerus -40.8834 -23.1401 103.786
lradius 70.099
lwrist 44.2124
lhand -17.6327 -26.1817
lfingers 7.12502
lthumb 8.62479 3.6221
rfemur -19.4884 -0.802054 23.3145
rtibia 37.3283
rfoot -35.9007 24.5713
rtoes -14.667
lfemur -35.7695 16.0405 8.96011
ltibia 49.1461
lfoot -5.31163 11.5708
ltoes -32.5142
552
root 16.0355 14.8531 34.322 363.024 -147.57 -346.313
lowerback -0.0915253 -3.77646 14.5461
upperback -3.97577 -5.04724 4.36575
thorax -5.01594 -3.15468 -3.18288
lowerneck -7.18409 2.22724 -25.9908
upperneck 14.1835 0.583393 33.1872
head 4.82537 0.380201 16.9433
rclavicle 1.18898e-014 -7.79236e-014
rhumerus -76.3114 11.3833 -88.6945
rradius 134.47
rwrist -18.3772
rhand -15.3357 -12.8003
rfingers 7.12502
rthumb 10.841 -42.5005
lclavicle 1.18898e-014 -7.79236e-014
lhumerus -40.9144 -23.0183 103.822
lradius 70.5317
lwrist 44.2643
lhand -17.6647 -26.1703
lfingers 7.12502
lthumb 8.59392 3.63481
rfemur -19.4417 -0.908435 23.1954
rtibia 37.2052
rfoot -36.1324 24.4374
rtoes -15.2091
lfemur -36.1556 16.4465 8.68926
ltibia 49.6763
lfoot -6.04063 11.5773
ltoes -32.7634
553
root 15.9549 14.8358 34.3395 363.039 -147.488 -346.116
lowerback -0.179591 -3.78338 14.6937
upperback -4.00083 -5.07517 4.4076
thorax -5.00796 -3.17738 -3.21974
lowerneck -7.132 2.20109 -26.0355
upperneck 14.0853 0.561241 33.2
head 4.79539 0.365036 16.9506
rclavicle -1.05232e-014 -1.59028e-015
rhumerus -76.3724 11.1359 -88.7486
rradius 134.564
rwrist -18.3114
rhand -15.3623 -12.7087
rfingers 7.12502
rthumb 10.8153 -42.4102
lclavicle -1.05232e-014 -1.59028e-015
lhumerus -40.9594 -22.8884 103.862
lradius 70.9666
lwrist 44.3086
lhand -17.6982 -26.1645
lfingers 7.12502
lthumb 8.56156 3.6419
rfemur -19.3717 -0.942954 23.0553
rtibia 37.0826
rfoot -36.3567 24.1876
rtoes -15.8679
lfemur -36.5697 16.9015 8.35695
ltibia 50.2307
lfoot -6.7764 11.6392
ltoes -32.839
554
root 15.8726 14.8183 34.357 363.052 -147.386 -345.94
lowerback -0.259291 -3.78931 14.8081
upperback -4.03246 -5.09968 4.44575
thorax -5.00843 -3.19768 -3.24211
lowerneck -7.05244 2.18103 -26.0768
upperneck 13.9823 0.541451 33.2138
head 4.75766 0.349078 16.956
rclavicle -2.69726e-014 1.23246e-014
rhumerus -76.4129 10.9121 -88.7954
rradius 134.642
rwrist -18.3019
rhand -15.3873 -12.6455
rfingers 7.12502
rthumb 10.7912 -42.3483
lclavicle -2.69726e-014 1.23246e-014
lhumerus -41.0181 -22.7422 103.912
lradius 71.3951
lwrist 44.3389
lhand -17.7297 -26.159
lfingers 7.12502
lthumb 8.53117 3.64862
rfemur -19.2807 -0.886988 22.8886
rtibia 36.9626
rfoot -36.576 23.7966
rtoes -16.6665
lfemur -37.0139 17.4162 7.95383
ltibia 50.8089
lfoot -7.52219 11.7296
ltoes -32.7232
555
root 15.7889 14.8003 34.3747 363.067 -147.264 -345.789
lowerback -0.324648 -3.7965 14.8843
upperback -4.06336 -5.12297 4.48332
thorax -5.01232 -3.21567 -3.24391
lowerneck -6.98791 2.15139 -26.1295
upperneck 13.8837 0.51103 33.2336
head 4.72791 0.328606 16.9686
rclavicle -6.1822e-014 8.15017e-014
rhumerus -76.4066 10.719 -88.8264
rradius 134.704
rwrist -18.3544
rhand -15.4204 -12.6174
rfingers 7.12502
rthumb 10.7592 -42.3219
lclavicle -6.1822e-014 8.15017e-014
lhumerus -41.0687 -22.5778 103.964
lradius 71.816
lwrist 44.3558
lhand -17.7397 -26.1418
lfingers 7.12502
lthumb 8.52155 3.66624
rfemur -19.1701 -0.730511 22.694
rtibia 36.8484
rfoot -36.791 23.2448
rtoes -17.6122
lfemur -37.4885 17.9915 7.47864
ltibia 51.4074
lfoot -8.27841 11.8221
ltoes -32.424
556
root 15.7037 14.782 34.3924 363.086 -147.119 -345.664
lowerback -0.38262 -3.80317 14.919
upperback -4.10314 -5.14318 4.51649
thorax -5.02576 -3.23124 -3.22753
lowerneck -6.89488 2.12508 -26.1827
upperneck 13.7807 0.478093 33.2579
head 4.69196 0.304556 16.9822
rclavicle -2.086e-014 1.59028e-015
rhumerus -76.3859 10.5476 -88.8521
rradius 134.757
rwrist -18.4527
rhand -15.4643 -12.6164
rfingers 7.12502
rthumb 10.717 -42.3231
lclavicle -2.086e-014 1.59028e-015
lhumerus -41.1373 -22.3991 104.028
lradius 72.2302
lwrist 44.3576
lhand -17.7536 -26.1039
lfingers 7.12502
lthumb 8.5081 3.70474
rfemur -19.0414 -0.473326 22.4701
rtibia 36.7434
rfoot -37.0004 22.5254
rtoes -18.7025
lfemur -37.993 18.6197 6.93142
ltibia 52.0206
lfoot -9.04518 11.9042
ltoes -31.9506
557
root 15.617 14.7633 34.4103 363.115 -146.953 -345.573
lowerback -0.436001 -3.81095 14.9041
upperback -4.14015 -5.16383 4.5491
thorax -5.03382 -3.24423 -3.18563
lowerneck -6.81475 2.08874 -26.2482
upperneck 13.6769 0.435292 33.2863
head 4.66195 0.276332 17.0017
rclavicle 1.23122e-014 -1.96797e-014
rhumerus -76.3209 10.4062 -88.8603
rradius 134.802
rwrist -18.5885
rhand -15.5096 -12.6448
rfingers 7.12502
rthumb 10.6733 -42.3537
lclavicle 1.23122e-014 -1.96797e-014
lhumerus -41.191 -22.209 104.095
lradius 72.6347
lwrist 44.3483
lhand -17.7858 -26.059
lfingers 7.12502
lthumb 8.47706 3.7509
rfemur -18.8997 -0.118224 22.2117
rtibia 36.6517
rfoot -37.1967 21.6449
rtoes -19.914
lfemur -38.5243 19.2932 6.30671
ltibia 52.6391
lfoot -9.79471 11.9916
ltoes -31.4734
558
root 15.5289 14.7444 34.4284 363.157 -146.76 -345.522
lowerback -0.49409 -3.81818 14.8331
upperback -4.1741 -5.18432 4.5776
thorax -5.03035 -3.25363 -3.11935
lowerneck -6.72679 2.04377 -26.3253
upperneck 13.5632 0.380517 33.3216
head 4.63185 0.24128 17.0267
rclavicle 5.92875e-014 2.74323e-014
rhumerus -76.2193 10.2821 -88.8525
rradius 134.839
rwrist -18.7254
rhand -15.5595 -12.682
rfingers 7.12502
rthumb 10.6251 -42.3934
lclavicle 5.92875e-014 2.74323e-014
lhumerus -41.2372 -22.0245 104.172
lradius 73.0309
lwrist 44.3297
lhand -17.8458 -26.0071
lfingers 7.12502
lthumb 8.41918 3.80512
rfemur -18.7422 0.337293 21.9151
rtibia 36.5757
rfoot -37.3728 20.5901
rtoes -21.2553
lfemur -39.0769 19.9971 5.60011
ltibia 53.2524
lfoot -10.5345 12.0946
ltoes -30.9822
